<?xml version="1.0" encoding="utf-8"?>
<!-- Generator: Adobe Illustrator 26.0.2, SVG Export Plug-In . SVG Version: 6.00 Build 0)  -->
<svg version="1.1" id="Layer_1" xmlns="http://www.w3.org/2000/svg" xmlns:xlink="http://www.w3.org/1999/xlink" x="0px" y="0px"
	 viewBox="0 0 1280 1280" style="enable-background:new 0 0 1280 1280;" xml:space="preserve">
<style type="text/css">
	.st0{fill:#000083;}
	.st1{fill:url(#SVGID_1_);}
	.st2{fill:url(#path69_00000054978882131232039440000007873984190837661113_);}
	.st3{fill:url(#path77_00000066483873486896740350000003044249152647302847_);}
	.st4{fill:url(#path968_00000120559810488745651550000008221331165031539379_);}
	.st5{fill:#FFFFFF;}
</style>
<g id="g1006_00000150813301555745328100000009359434677279122355_" transform="matrix(0.26296827,0,0,0.26296827,-799.54693,61.582129)">
	<g id="g35_00000001647628425626499840000006049949683224344201_" transform="matrix(12.509277,0,0,12.509277,438.06846,8.29825)">
		<path id="path33_00000150819711884966367070000010191472563218433930_" class="st0" d="M243.91,134.27h12.18v58.61h21v11.57
			h-33.13L243.91,134.27"/>
	</g>
	<g id="g41_00000122720980948293741590000016153965939336490682_" transform="matrix(12.509277,0,0,12.509277,438.06846,8.29825)">
		<path id="path39_00000098930187939987372610000006319125962640163503_" class="st0" d="M305.3,151.85
			c6.45-0.08,12.57,2.86,16.54,7.95v-6.91h11.36v51.65h-11.36v-6.91c-3.97,5.09-10.09,8.03-16.54,7.95
			c-14.17,0-24.92-12.1-24.92-26.88C280.38,163.93,291.13,151.85,305.3,151.85 M307.36,162.2c-9.2,0-15.29,7.24-15.29,16.51
			c0,9.28,6.19,16.54,15.29,16.54c9.1,0,15.29-7.24,15.29-16.54S316.56,162.2,307.36,162.2"/>
	</g>
	<g id="g47_00000170264138772854852850000003476276489028374714_" transform="matrix(12.509277,0,0,12.509277,438.06846,8.29825)">
		<path id="path45_00000142890074498257422930000010132835927040893617_" class="st0" d="M342.04,195.58l27.09-32.36h-26.68V152.9
			h41.36v9.1l-26.99,32.24h27.6v10.32h-42.38V195.58"/>
	</g>
	<g id="g53_00000017483128554868289790000003595212210043511682_" transform="matrix(12.509277,0,0,12.509277,438.06846,8.29825)">
		<path id="path51_00000004541706151008897410000000447530795015186565_" class="st0" d="M413.32,151.85
			c6.45-0.08,12.57,2.86,16.54,7.95v-6.91h11.37v51.65h-11.37v-6.91c-3.97,5.09-10.09,8.03-16.54,7.95
			c-14.17,0-24.9-12.1-24.9-26.88C388.42,163.93,399.15,151.85,413.32,151.85 M415.38,162.2c-9.2,0-15.29,7.24-15.29,16.51
			c0,9.28,6.19,16.54,15.29,16.54c9.1,0,15.29-7.24,15.29-16.54S424.58,162.2,415.38,162.2"/>
	</g>
	<g id="g59_00000003799224058903166170000004731110334517553820_" transform="matrix(12.509277,0,0,12.509277,438.06846,8.29825)">
		<path id="path57_00000181065125939625195220000000796462253252700605_" class="st0" d="M473.69,151.85
			c6.45-0.08,12.56,2.86,16.51,7.95v-29.69h11.36v74.44H490.2v-6.91c-3.96,5.09-10.07,8.04-16.51,7.95
			c-14.17,0-24.92-12.1-24.92-26.88C448.77,163.93,459.52,151.85,473.69,151.85 M475.75,162.2c-9.2,0-15.29,7.24-15.29,16.51
			c0,9.28,6.22,16.54,15.29,16.54c9.07,0,15.29-7.24,15.29-16.54S484.95,162.2,475.75,162.2"/>
	</g>
	<g id="g65_00000026121239183380625770000002083247409776735641_" transform="matrix(12.509277,0,0,12.509277,438.06846,8.29825)">
		<path id="path63_00000096745595843012687900000008627982469964127414_" class="st0" d="M534.03,151.85
			c6.45-0.08,12.56,2.86,16.51,7.95v-6.91h11.34v51.65H550.5v-6.91c-3.96,5.09-10.07,8.04-16.51,7.95
			c-14.17,0-24.92-12.1-24.92-26.88C509.06,163.93,519.87,151.85,534.03,151.85 M536.1,162.2c-9.2,0-15.29,7.24-15.29,16.51
			c0,9.28,6.22,16.54,15.29,16.54c9.07,0,15.29-7.24,15.29-16.54S545.3,162.2,536.1,162.2"/>
	</g>
</g>
</svg>
