<svg id="Layer_1" data-name="Layer 1" xmlns="http://www.w3.org/2000/svg" xmlns:xlink="http://www.w3.org/1999/xlink" viewBox="0 0 638 167.18"><defs><style>.cls-1{fill:#000083;}.cls-2{fill:url(#linear-gradient);}.cls-3{fill:url(#linear-gradient-2);}.cls-4{fill:url(#linear-gradient-3);}</style><linearGradient id="linear-gradient" x1="98.29" y1="744.57" x2="134.91" y2="744.85" gradientTransform="matrix(5.57, 0, 0, -5.57, -365.86, 4647.58)" gradientUnits="userSpaceOnUse"><stop offset="0" stop-color="#ffb900"/><stop offset="0.34" stop-color="#f38000"/><stop offset="0.57" stop-color="#f83c72"/><stop offset="0.78" stop-color="#fc1cbe"/><stop offset="0.93" stop-color="#fe08ed"/><stop offset="1" stop-color="#f0f"/></linearGradient><linearGradient id="linear-gradient-2" x1="108.58" y1="732.58" x2="145.92" y2="753.25" gradientTransform="matrix(5.57, 0, 0, -5.57, -365.86, 4647.58)" gradientUnits="userSpaceOnUse"><stop offset="0" stop-color="#ee0a3f"/><stop offset="1" stop-color="#ee0a3f" stop-opacity="0"/></linearGradient><linearGradient id="linear-gradient-3" x1="114.58" y1="738.24" x2="132.82" y2="752.93" gradientTransform="translate(892.07 4601.35) rotate(180) scale(5.51)" gradientUnits="userSpaceOnUse"><stop offset="0" stop-color="#ed6600"/><stop offset="1" stop-color="#f98200"/></linearGradient></defs><title>Lazada Logo Vector</title><g id="layer1"><g id="g975"><g id="layer1-5"><g id="layer1-2"><g id="g1006"><g id="g35"><path id="path33" class="cls-1" d="M441.75,439.79H456.2v69.54h24.91v13.73h-39.3l-.06-83.27" transform="translate(-181 -416.41)"/></g><g id="g41"><path id="path39" class="cls-1" d="M514.58,460.65a24.49,24.49,0,0,1,19.62,9.44v-8.2h13.49v61.29H534.2V515a24.49,24.49,0,0,1-19.62,9.44c-16.81,0-29.57-14.36-29.57-31.9s12.76-31.87,29.57-31.87M517,472.93c-10.91,0-18.14,8.59-18.14,19.59s7.35,19.62,18.14,19.62,18.14-8.58,18.14-19.62-7.23-19.59-18.14-19.59" transform="translate(-181 -416.41)"/></g><g id="g47"><path id="path45" class="cls-1" d="M558.18,512.54l32.14-38.4H558.66V461.89h49.07v10.8l-32,38.24h32.75v12.25H558.18V512.54" transform="translate(-181 -416.41)"/></g><g id="g53"><path id="path51" class="cls-1" d="M642.74,460.65a24.49,24.49,0,0,1,19.62,9.44v-8.2h13.49v61.29H662.36V515a24.49,24.49,0,0,1-19.62,9.44c-16.81,0-29.54-14.36-29.54-31.9s12.73-31.87,29.54-31.87m2.45,12.28c-10.92,0-18.14,8.59-18.14,19.59s7.35,19.62,18.14,19.62,18.14-8.58,18.14-19.62-7.23-19.59-18.14-19.59" transform="translate(-181 -416.41)"/></g><g id="g59"><path id="path57" class="cls-1" d="M714.36,460.65A24.4,24.4,0,0,1,734,470.09V434.87h13.49v88.31H734V515a24.37,24.37,0,0,1-19.59,9.44c-16.81,0-29.56-14.36-29.56-31.9s12.75-31.87,29.56-31.87m2.45,12.28c-10.91,0-18.14,8.59-18.14,19.59s7.38,19.62,18.14,19.62S735,503.56,735,492.52s-7.22-19.59-18.14-19.59" transform="translate(-181 -416.41)"/></g><g id="g65"><path id="path63" class="cls-1" d="M786,460.65a24.42,24.42,0,0,1,19.6,9.44v-8.2H819v61.29H805.49V515a24.4,24.4,0,0,1-19.59,9.44c-16.81,0-29.57-14.36-29.57-31.9s12.82-31.87,29.62-31.87m2.45,12.28c-10.91,0-18.14,8.59-18.14,19.59s7.38,19.62,18.14,19.62,18.14-8.58,18.14-19.62-7.22-19.59-18.14-19.59" transform="translate(-181 -416.41)"/></g></g><g id="g942"><g id="g71"><path id="path69" class="cls-2" d="M284,583.59a8.34,8.34,0,0,1-4.17-1.08c-10.89-6.31-91.56-56.89-94.61-58.43a7.29,7.29,0,0,1-4.17-5.84V447.29a7.67,7.67,0,0,1,3.46-6.59l.59-.34c7.8-4.84,33.93-20.78,38.06-23.07a6.19,6.19,0,0,1,3.13-.88,6.5,6.5,0,0,1,3,.75s36.56,23.83,42.15,26a28.89,28.89,0,0,0,12.52,2.63,28.1,28.1,0,0,0,14-3.42c5.47-2.88,40.4-25,40.77-25a5.53,5.53,0,0,1,2.93-.8,6.19,6.19,0,0,1,3.13.88c4.75,2.63,37.14,22.45,38.51,23.33a7.53,7.53,0,0,1,3.64,6.51v70.94a7.25,7.25,0,0,1-4.18,5.85c-3,1.67-83.46,52.25-94.56,58.42a8.44,8.44,0,0,1-4.18,1.17" transform="translate(-181 -416.41)"/></g><g id="g79"><path id="path77" class="cls-3" d="M283.59,583.59H284a8.38,8.38,0,0,0,4.18-1.08c10.89-6.31,91.52-56.89,94.56-58.43a7.23,7.23,0,0,0,4.18-5.84V447.29a7.54,7.54,0,0,0-.8-3.46L283.59,500.12v83.47" transform="translate(-181 -416.41)"/></g><g id="g970"><path id="path968" class="cls-4" d="M283.23,582.59h-.41a8.29,8.29,0,0,1-4.13-1.07c-10.78-6.24-90.55-56.28-93.56-57.81a7.11,7.11,0,0,1-4.13-5.78V447.74a7.62,7.62,0,0,1,.78-3.42L283.23,500v82.58" transform="translate(-181 -416.41)"/></g></g></g></g></g></g></svg>